
<svg width="800" height="600" xmlns="http://www.w3.org/2000/svg">
  <rect width="100%" height="100%" fill="#f5f5f5" />
  <rect x="100" y="100" width="600" height="400" rx="8" fill="#fff" stroke="#e0e0e0" />
  <rect x="120" y="120" width="560" height="40" rx="4" fill="#9b87f5" />
  <rect x="140" y="132" width="120" height="16" rx="2" fill="white" opacity="0.8" />
  <rect x="500" y="132" width="60" height="16" rx="2" fill="white" opacity="0.6" />
  <rect x="570" y="132" width="60" height="16" rx="2" fill="white" opacity="0.6" />
  
  <rect x="120" y="180" width="170" height="120" rx="4" fill="#f0f0f0" />
  <rect x="310" y="180" width="170" height="120" rx="4" fill="#f0f0f0" />
  <rect x="500" y="180" width="170" height="120" rx="4" fill="#f0f0f0" />
  
  <rect x="120" y="320" width="170" height="120" rx="4" fill="#f0f0f0" />
  <rect x="310" y="320" width="170" height="120" rx="4" fill="#f0f0f0" />
  <rect x="500" y="320" width="170" height="120" rx="4" fill="#f0f0f0" />
  
  <rect x="310" y="460" width="170" height="20" rx="4" fill="#9b87f5" opacity="0.7" />
  <text x="400" y="310" font-family="Arial" font-size="14" text-anchor="middle" fill="#333">App Screenshots</text>
</svg>
